<?xml version="1.0"?>
<svg xmlns="http://www.w3.org/2000/svg" viewBox="0 0 64 64" width="512" height="512"><g id="Flat_Icon" data-name="Flat Icon"><path d="M50,42.82A3,3,0,0,1,52,42V40H47v4h1.72Z" style="fill:#fcbc04"/><rect x="32" y="19" width="9" height="8" style="fill:#4891d3"/><path d="M27.29,43l9.85,1.74a3,3,0,0,1,2.43,3.47c0,.1,0,.19-.08.29l3.07.27a2,2,0,0,0,1.52-.52L47,45.57V35A10,10,0,0,0,37,25H36A10,10,0,0,0,26,35v8Z" style="fill:#57b7eb"/><path d="M33,40a4,4,0,0,1-4-4A10,10,0,0,1,39,26h1a9.8,9.8,0,0,1,1.64.15A9.93,9.93,0,0,0,37,25H36A10,10,0,0,0,26,35v8h1.29l9.85,1.74a3,3,0,0,1,2.43,3.47c0,.1,0,.19-.08.29l3.07.27a2,2,0,0,0,1.52-.52L47,45.57V40Z" style="fill:#4891d3"/><path d="M40.5,11a2,2,0,0,0-2,2,2,2,0,0,0-4,0,2,2,0,0,0-4,0v4a4,4,0,0,0,4,4h4a4,4,0,0,0,4-4V13A2,2,0,0,0,40.5,11Z" style="fill:#57b7eb"/><path d="M40,18a6,6,0,0,1-6-6v-.31A2,2,0,0,0,30.5,13v4a4,4,0,0,0,4,4h4a4,4,0,0,0,3.86-3Z" style="fill:#4891d3"/><rect x="29.5" y="21" width="14" height="4" rx="2" ry="2" style="fill:#c4f236"/><path d="M31.19,21a2,2,0,0,0,.31,4h10a2,2,0,0,0,2-2H34A3,3,0,0,1,31.19,21Z" style="fill:#a1d51c"/><path d="M36.5,36a1.5,1.5,0,0,1,0-3h0A1.51,1.51,0,0,1,38,34.5a1,1,0,0,0,2,0,3.51,3.51,0,0,0-2.5-3.35V30a1,1,0,0,0-2,0v1.15a3.5,3.5,0,0,0,1,6.85A1.5,1.5,0,1,1,35,39.5a1,1,0,0,0-2,0,3.51,3.51,0,0,0,2.5,3.35V44a1,1,0,0,0,2,0V42.85a3.5,3.5,0,0,0-1-6.85Z" style="fill:#fcbc04"/><rect x="47" y="32" width="5" height="4" style="fill:#fcbc04"/><rect x="47" y="36" width="5" height="4" style="fill:#f9e109"/><rect x="49" y="28" width="6" height="4" rx="1" ry="1" style="fill:#f9e109"/><polygon points="58 14 58 20 52 20 52 14 49 14 55 6 61 14 58 14" style="fill:#c4f236"/><polygon points="25 15 16 3 7 15 12 15 12 25 20 25 20 15 25 15" style="fill:#c4f236"/><path d="M55,11V6l-6,8h3v6h6V17.24A8,8,0,0,1,55,11Z" style="fill:#a1d51c"/><path d="M16,12V3L7,15h5V25h8V20A10,10,0,0,1,16,12Z" style="fill:#a1d51c"/><path d="M22.25,49.53V57H41.08a6,6,0,0,0,4.05-1.58l8.81-8.07a3.11,3.11,0,0,0,.41-4.23,3,3,0,0,0-4.34-.3l-5.93,5.43a2,2,0,0,1-1.52.52l-3.07-.27" style="fill:#fcbc04"/><path d="M50,42.82l-5.93,5.43a2,2,0,0,1-1.52.52,6.3,6.3,0,0,0,1.92.2L49,44.82a3,3,0,0,1,4.34.3A2.89,2.89,0,0,1,54,47.31a3.11,3.11,0,0,0,.37-4.19A3,3,0,0,0,50,42.82Z" style="fill:#f9e109"/><path d="M23,49.49l14.09,3.16a3,3,0,0,0,3.3-4.07l-.9-.08Z" style="fill:#e59730"/><path d="M37.14,44.74,27.29,43H22V54l7.29-4.55,6.8,1.2a3,3,0,0,0,1-5.91Z" style="fill:#fcbc04"/><path d="M37.14,44.74,27.29,43H22v1h3.29l9.85,1.74a3,3,0,0,1,1.72,4.93,3,3,0,0,0,.28-5.93Z" style="fill:#f9e109"/><rect x="3" y="39" width="13" height="22" style="fill:#4891d3"/><path d="M15,57a8,8,0,0,1-8-8V39H3V61H16V57Z" style="fill:#2d72bc"/><rect x="16" y="41" width="6.25" height="18" style="fill:#f9e109"/><rect x="16" y="55" width="6.25" height="4" style="fill:#fcbc04"/><circle cx="10" cy="55" r="2" style="fill:#57b7eb"/><path d="M10,57a2,2,0,0,0,1.57-.78,8.05,8.05,0,0,1-3.06-2.55A2,2,0,0,0,8,55,2,2,0,0,0,10,57Z" style="fill:#4891d3"/><path d="M46.29,52.28A23.86,23.86,0,0,1,37.38,54H22.25v3H41.08a6,6,0,0,0,4.05-1.58l5.18-4.75Z" style="fill:#e59730"/></g></svg>
